# xmcd
#
# Track frame offsets: 
#        150
#        19224
#        38649
#        62816
#        95564
#        117793
#        145149
#        167115
#        188082
#        208561
#        232834
#
# Disc length: 3420 seconds
#
# Revision: 2
# Processed by: cddbd v1.5.2PL0 Copyright (c) Steve Scherf et al.
# Submitted via: ExactAudioCopy v0.99pb4
#
DISCID=8e0d5a0b
DTITLE=Trouble Boys, The - Blues All Over
DYEAR=2003
DGENRE=BLUES
TTITLE0=Trouble Boys
TTITLE1=Still Not Satisfied
TTITLE2=Texas Daddy
TTITLE3=Once in a Lifetime
TTITLE4=You're Not Tellin' the Truth
TTITLE5=Evil Eye
TTITLE6=Cut You Loose
TTITLE7=Water on My Fire
TTITLE8=Roll Back Those Blankets
TTITLE9=Blues All Over
TTITLE10=It Takes a Lot to Laugh
EXTD=Last Chance Records\n\n
EXTT0=
EXTT1=
EXTT2=
EXTT3=
EXTT4=
EXTT5=
EXTT6=
EXTT7=
EXTT8=
EXTT9=
EXTT10=
PLAYORDER=
